# xmcd CD database file
#
# Track frame offsets:
#	150
#	32463
#	63999
#	94365
#	111873
#	136056
#
# Disc length: 2514 seconds
#
# Revision: 0
# Processed by: cddbd v1.5.2PL0 Copyright (c) Steve Scherf et al.
# Submitted via: CDex 2.00
#
DISCID=4809d006
DTITLE=The Gordon Beck Trio - Gyroscope
DYEAR=1969
DGENRE=Jazz
TTITLE0=Gyroscope
TTITLE1=Clusters
TTITLE2=Suite No.1
TTITLE3=Miss T Fying
TTITLE4=Sincerity
TTITLE5=And Still She Is With Me - Oxus
EXTD=YEAR: 1969
EXTT0=
EXTT1=
EXTT2=
EXTT3=
EXTT4=
EXTT5=
PLAYORDER=
